<?xml version="1.0" encoding="iso-8859-1"?>
<!-- Generator: Adobe Illustrator 19.0.0, SVG Export Plug-In . SVG Version: 6.00 Build 0)  -->
<svg version="1.1" id="Layer_1" xmlns="http://www.w3.org/2000/svg" xmlns:xlink="http://www.w3.org/1999/xlink" x="0px" y="0px"
	 viewBox="0 0 512 512" style="enable-background:new 0 0 512 512;" xml:space="preserve">
<g>
	<g>
		<path d="M478.908,222.726c-19.633-22.694-46.172-38.24-75.311-44.248c-20.087-67.474-82.122-114.031-153.142-114.031
			c-36.219,0-71.697,12.457-99.898,35.074c-26.154,20.976-45.205,49.908-54.111,81.991C39.354,198.773,0,251.41,0,311.617
			c0,74.956,60.98,135.936,135.935,135.936h241.689c0.269,0,0.537-0.01,0.801-0.031c35.701-0.608,69.172-14.92,94.31-40.345
			c25.32-25.609,39.265-59.546,39.265-95.56C512,278.963,500.247,247.394,478.908,222.726z M377.497,426.884
			c-0.176,0.001-0.349,0.008-0.522,0.019h-241.04c-63.568,0-115.285-51.718-115.285-115.286c0-52.826,35.714-98.779,86.852-111.748
			c3.732-0.947,6.628-3.892,7.511-7.641c14.853-63.077,70.549-107.13,135.443-107.13c63.804,0,119.278,43.144,134.904,104.918
			c1.017,4.018,4.339,7.04,8.435,7.672c55.615,8.579,97.555,57.557,97.555,113.928C491.351,374.412,440.276,426.12,377.497,426.884z
			"/>
	</g>
</g>
<g>
	<g>
		<path d="M265.527,270.472c-8.663-27.308-25.454-50.821-48.554-68c-23.567-17.525-51.591-26.789-81.038-26.789
			c-5.702,0-10.325,4.622-10.325,10.325s4.622,10.325,10.325,10.325c50.487,0,94.657,32.304,109.91,80.383
			c1.395,4.397,5.459,7.206,9.838,7.206c1.035,0,2.087-0.157,3.124-0.486C264.242,281.711,267.251,275.907,265.527,270.472z"/>
	</g>
</g>
<g>
	<g>
		<path d="M271.778,306.622c-0.207-5.698-4.978-10.15-10.691-9.945c-5.698,0.207-10.15,4.993-9.945,10.691
			c0.052,1.411,0.077,2.841,0.077,4.249c0,5.702,4.622,10.325,10.325,10.325c5.702,0,10.325-4.622,10.324-10.325
			C271.868,309.962,271.838,308.281,271.778,306.622z"/>
	</g>
</g>
<g>
</g>
<g>
</g>
<g>
</g>
<g>
</g>
<g>
</g>
<g>
</g>
<g>
</g>
<g>
</g>
<g>
</g>
<g>
</g>
<g>
</g>
<g>
</g>
<g>
</g>
<g>
</g>
<g>
</g>
</svg>
