<?xml version="1.0" encoding="iso-8859-1"?>
<!-- Generator: Adobe Illustrator 19.0.0, SVG Export Plug-In . SVG Version: 6.00 Build 0)  -->
<svg version="1.1" id="Layer_1" xmlns="http://www.w3.org/2000/svg" xmlns:xlink="http://www.w3.org/1999/xlink" x="0px" y="0px"
	 viewBox="0 0 291.206 291.206" style="enable-background:new 0 0 291.206 291.206;" xml:space="preserve">
<g>
	<g>
		<g>
			<path d="M290.92,103.405l-0.586-9.356l-60.647,3.792v-5.522l61.519-7.692l-1.162-9.3l-59.095,7.388l56.672-21.797l-3.37-8.752
				l-51.923,19.969l47.048-35.283l-5.625-7.5l-40.613,30.459l28.575-42.862l-7.8-5.198l-29.044,43.566l14.016-49.055l-9.019-2.573
				l-14.241,49.847V0.29h-9.375v53.245L192.009,3.693l-9.019,2.573l14.016,49.055l-29.044-43.566l-7.8,5.198l28.575,42.863
				l-40.613-30.464l-5.625,7.5l47.044,35.283L137.62,52.166l-3.37,8.752l56.672,21.797l-59.095-7.387l-1.163,9.3l61.523,7.692v5.522
				L131.54,94.05l-0.586,9.356l61.233,3.825v5.559H131.25v9.375h60.938v4.688H131.25v9.375h60.938v4.688H131.25v9.375h60.938v5.559
				l-61.233,3.825l0.586,9.356l60.647-3.792v4.223c-15.342,0.769-40.556,2.939-62.222,9.127l2.573,9.019
				c20.363-5.817,44.667-7.95,59.653-8.733v3.938c-15.159,0.609-38.817,4.35-54.877,20.409l6.628,6.628
				c13.631-13.622,34.584-16.983,48.244-17.606v79.922c0,10.341,8.409,18.75,18.75,18.75s18.75-8.409,18.75-18.75v-79.688h60.938
				v-9.375h-60.938v-4.688h60.938v-9.375h-60.938v-4.688h60.938v-9.375h-60.938v-4.688h60.938v-9.375h-60.938v-4.688h60.938v-9.375
				h-60.938v-4.688h60.938v-9.375h-60.938v-5.559L290.92,103.405z M220.314,98.429l-4.983,0.309l0.586,9.356l4.397-0.277v4.973
				h-0.001h-4.688v9.375h4.688v4.688h-4.688v9.375h4.688v4.688h-4.688v9.375h4.688v4.688h-4.688v9.375h4.688v4.688h-4.688v9.375
				h4.688v4.688h-4.688v9.375h4.688v79.688c0,5.17-4.205,9.375-9.375,9.375c-5.17,0-9.375-4.205-9.375-9.375v-79.973
				c2.559,0.098,4.102,0.253,4.177,0.258l1.031-9.319c-0.347-0.038-2.241-0.23-5.203-0.347v-4.288
				c2.878-0.075,4.598-0.084,4.683-0.084v-9.375c-0.319,0-1.997,0.005-4.688,0.07v-4.453l4.983-0.309l-0.586-9.356l-4.397,0.272
				v-4.973h4.688v-9.375h-4.688v-4.688h4.688v-9.375h-4.688v-4.688h4.688v-9.375h-4.688v-4.973l4.397,0.277l0.586-9.356
				l-4.983-0.309v-4.936l4.106,0.511l1.163-9.3l-5.208-0.652c0.211-3.192,2.006-5.93,4.627-7.458v3.384h9.375v-3.384
				c2.62,1.528,4.416,4.266,4.627,7.458l-5.208,0.652l1.163,9.3l4.106-0.511V98.429z"/>
			<path d="M0,286.227v4.688h9.375v-4.688c0-56.864,46.261-103.125,103.125-103.125v-9.375C50.47,173.727,0,224.197,0,286.227z"/>
			<path d="M126.563,262.79h9.375c0-20.677,16.823-37.5,37.5-37.5v-9.375C147.591,215.915,126.563,236.943,126.563,262.79z"/>
			<path d="M107.813,89.352v-9.375c-23.264,0-42.188-18.923-42.188-42.188H56.25C56.25,66.219,79.383,89.352,107.813,89.352z"/>
			<path d="M107.813,108.102v-9.375c-51.694,0-93.75-42.056-93.75-93.75V0.29H4.688v4.688
				C4.688,61.841,50.948,108.102,107.813,108.102z"/>
			<path d="M23.438,126.852c0,12.923,10.514,23.437,23.438,23.437c12.924,0,23.438-10.514,23.438-23.437
				c0-12.923-10.514-23.438-23.438-23.438C33.952,103.414,23.438,113.929,23.438,126.852z M60.938,126.852
				c0,7.753-6.309,14.062-14.063,14.062c-7.754,0-14.063-6.309-14.063-14.062s6.309-14.063,14.063-14.063
				C54.629,112.789,60.938,119.099,60.938,126.852z"/>
			<path d="M89.063,33.102c9.047,0,16.406-7.359,16.406-16.406S98.109,0.29,89.063,0.29c-9.046,0-16.407,7.359-16.407,16.406
				S80.016,33.102,89.063,33.102z M89.063,9.665c3.877,0,7.031,3.155,7.031,7.031c0,3.876-3.155,7.031-7.031,7.031
				c-3.876,0-7.031-3.155-7.031-7.031C82.032,12.82,85.186,9.665,89.063,9.665z"/>
			<path d="M60.938,244.04c-10.341,0-18.75,8.409-18.75,18.75s8.409,18.75,18.75,18.75s18.75-8.409,18.75-18.75
				S71.278,244.04,60.938,244.04z M60.938,272.165c-5.17,0-9.375-4.205-9.375-9.375c0-5.17,4.205-9.375,9.375-9.375
				c5.17,0,9.375,4.205,9.375,9.375C70.313,267.96,66.108,272.165,60.938,272.165z"/>
			<rect x="103.125" y="154.977" width="9.375" height="9.375"/>
			<rect x="103.125" y="136.227" width="9.375" height="9.375"/>
		</g>
	</g>
</g>
<g>
</g>
<g>
</g>
<g>
</g>
<g>
</g>
<g>
</g>
<g>
</g>
<g>
</g>
<g>
</g>
<g>
</g>
<g>
</g>
<g>
</g>
<g>
</g>
<g>
</g>
<g>
</g>
<g>
</g>
</svg>
