<?xml version="1.0" encoding="iso-8859-1"?>
<!-- Generator: Adobe Illustrator 19.0.0, SVG Export Plug-In . SVG Version: 6.00 Build 0)  -->
<svg version="1.1" id="Layer_1" xmlns="http://www.w3.org/2000/svg" xmlns:xlink="http://www.w3.org/1999/xlink" x="0px" y="0px"
	 viewBox="0 0 512 512" style="enable-background:new 0 0 512 512;" xml:space="preserve">
<g>
	<g>
		<path d="M480.446,338.292c-1.846-4.329-6.854-6.346-11.196-4.496l-35.313,15.082l-48.038-27.737l62.776-26.817
			c4.338-1.85,6.35-6.862,4.496-11.196c-1.85-4.333-6.859-6.35-11.196-4.496l-74.549,31.844l-33.469-19.324l62.018-27.345
			c3.096-1.363,5.092-4.425,5.092-7.808c0-3.383-1.996-6.446-5.092-7.808l-62.018-27.345l33.469-19.324l74.549,31.844
			c1.092,0.467,2.229,0.692,3.346,0.692c3.312,0,6.467-1.946,7.85-5.188c1.854-4.333-0.159-9.346-4.496-11.196l-62.776-26.817
			l48.038-27.735l35.313,15.081c1.092,0.467,2.229,0.692,3.346,0.692c3.317,0,6.467-1.946,7.85-5.188
			c1.854-4.333-0.158-9.346-4.496-11.196l-23.54-10.055l22.169-12.799c4.083-2.358,5.479-7.575,3.125-11.658
			c-2.363-4.083-7.588-5.487-11.659-3.125l-22.17,12.8l3.062-25.412c0.567-4.679-2.771-8.929-7.45-9.492
			c-4.671-0.571-8.929,2.766-9.492,7.45l-4.594,38.12l-48.039,27.735l8.166-67.776c0.567-4.679-2.771-8.929-7.45-9.492
			c-4.692-0.588-8.929,2.766-9.492,7.45l-9.698,80.483l-33.467,19.322l7.327-67.384c0.367-3.358-1.287-6.621-4.217-8.313
			c-2.933-1.683-6.076-1.496-8.813,0.504l-54.197,40.041v-30.112l64.359-48.641c3.771-2.825,4.285-8.175,1.456-11.946
			c-2.817-3.763-7.791-4.538-11.574-1.704l-54.242,40.958V55.466l30.226-23.041c3.771-2.825,4.285-8.175,1.456-11.946
			c-2.817-3.763-7.786-4.538-11.574-1.704l-20.108,15.358v-25.6c0-4.712-3.821-8.533-8.533-8.533s-8.533,3.821-8.533,8.533v25.6
			l-20.974-15.358c-3.771-2.833-9.365-2.058-12.194,1.704c-2.829,3.771-1.695,9.121,2.076,11.946l31.092,23.041v64.001
			l-55.107-40.958c-3.779-2.833-9.369-2.058-12.194,1.704c-2.829,3.771-1.695,9.121,2.076,11.946l65.225,48.641v30.112
			l-55.187-40.041c-2.729-1.996-6.623-2.187-9.556-0.504c-2.929,1.692-4.706,4.954-4.341,8.313l7.266,67.384l-26.11-15.056
			l-9.708-80.482c-0.564-4.683-4.812-7.996-9.5-7.45c-4.679,0.562-8.021,4.812-7.453,9.492l8.159,67.775l-55.428-32.001
			l-4.594-38.12c-0.558-4.679-4.829-7.971-9.492-7.45c-4.679,0.562-8.017,4.812-7.45,9.492l3.061,25.412l-22.17-12.8
			c-4.096-2.362-9.3-0.958-11.658,3.125c-2.354,4.083-0.958,9.3,3.125,11.658l22.169,12.799L36.05,162.513
			c-4.337,1.85-6.35,6.863-4.496,11.196c1.383,3.242,4.533,5.188,7.85,5.188c1.117,0,2.254-0.225,3.346-0.692l35.311-15.081
			l55.428,32.001l-62.777,26.818c-4.333,1.85-6.346,6.862-4.492,11.2c1.383,3.238,4.533,5.183,7.85,5.183
			c1.117,0,2.254-0.225,3.35-0.692l74.544-31.843l26.078,15.056l-62.018,27.345c-3.096,1.363-5.092,4.425-5.092,7.808
			c0,3.383,1.996,6.446,5.092,7.808l62.018,27.345l-26.078,15.056l-74.544-31.843c-4.354-1.854-9.354,0.158-11.2,4.492
			c-1.854,4.338,0.159,9.35,4.492,11.2l62.777,26.818l-55.428,32.002L42.75,333.796c-4.337-1.85-9.346,0.167-11.196,4.496
			c-1.854,4.333,0.159,9.346,4.496,11.196l23.539,10.055l-22.169,12.799c-4.083,2.358-5.479,7.575-3.125,11.658
			c1.583,2.738,4.45,4.267,7.4,4.267c1.446,0,2.917-0.366,4.258-1.142l22.17-12.8l-3.061,25.412
			c-0.567,4.679,2.771,8.929,7.45,9.492c0.346,0.042,0.692,0.063,1.033,0.063c4.254,0,7.938-3.179,8.458-7.513l4.594-38.12
			l55.426-32.001l-8.161,67.775c-0.567,4.679,2.771,8.929,7.45,9.492c0.346,0.042,0.692,0.063,1.033,0.063
			c4.254,0,7.938-3.179,8.458-7.512l9.694-80.482l26.079-15.056l-7.327,67.384c-0.367,3.358,1.287,6.621,4.217,8.313
			c2.921,1.679,7.07,1.492,9.803-0.504l55.187-40.041v38.646l-65.349,48.641c-3.771,2.825-4.781,8.175-1.952,11.946
			c2.825,3.771,8.539,4.546,12.318,1.704l54.983-40.958v55.468l-31.216,23.041c-3.771,2.825-4.781,8.175-1.952,11.946
			c2.829,3.763,8.547,4.546,12.318,1.704l20.85-15.358v25.6c0,4.713,3.821,8.533,8.533,8.533s8.533-3.821,8.533-8.533v-25.6
			l19.984,15.358c1.537,1.154,3.085,1.708,4.864,1.708c2.596,0,5.036-1.179,6.71-3.412c2.83-3.771,2.5-9.121-1.271-11.946
			l-30.288-23.041v-55.468l54.118,40.958c1.538,1.154,3.085,1.708,4.864,1.708c2.596,0,5.036-1.179,6.71-3.412
			c2.83-3.771,2.5-9.121-1.271-11.946l-64.421-48.641v-38.646l54.197,40.041c1.496,1.092,3.019,1.646,4.794,1.646
			c1.472,0,2.818-0.379,4.143-1.142c2.93-1.692,4.522-4.954,4.155-8.313l-7.358-67.384l33.452,19.322l9.69,80.483
			c0.521,4.333,4.201,7.512,8.455,7.512c0.342,0,0.685-0.021,1.031-0.063c4.679-0.562,8.016-4.812,7.449-9.492l-8.167-67.776
			l48.039,27.735l4.594,38.12c0.521,4.333,4.204,7.513,8.458,7.513c0.342,0,0.688-0.021,1.033-0.063
			c4.679-0.563,8.017-4.812,7.45-9.492l-3.062-25.412l22.17,12.8c1.346,0.775,2.813,1.141,4.258,1.141c2.95,0,5.817-1.529,7.4-4.267
			c2.354-4.083,0.958-9.3-3.125-11.658l-22.169-12.799l23.54-10.055C480.288,347.638,482.3,342.625,480.446,338.292z M140.617,256
			l55.743-24.578L238.93,256l-42.571,24.578L140.617,256z M248.456,319.936l-49.653,35.99l6.833-60.564l42.82-24.579V319.936z
			 M248.456,241.219l-42.82-24.58l-6.833-60.564l49.653,35.99V241.219z M265.523,192.065l48.663-35.99l-6.339,60.564l-42.325,24.58
			V192.065z M265.523,319.936v-49.153l42.325,24.579l6.339,60.564L265.523,319.936z M315.641,280.578L273.069,256l42.572-24.578
			L371.383,256L315.641,280.578z"/>
	</g>
</g>
<g>
</g>
<g>
</g>
<g>
</g>
<g>
</g>
<g>
</g>
<g>
</g>
<g>
</g>
<g>
</g>
<g>
</g>
<g>
</g>
<g>
</g>
<g>
</g>
<g>
</g>
<g>
</g>
<g>
</g>
</svg>
