<?xml version="1.0" standalone="no"?>
<!DOCTYPE svg PUBLIC "-//W3C//DTD SVG 20010904//EN"
 "http://www.w3.org/TR/2001/REC-SVG-20010904/DTD/svg10.dtd">
<svg version="1.0" xmlns="http://www.w3.org/2000/svg"
 width="1280.000000pt" height="1101.000000pt" viewBox="0 0 1280.000000 1101.000000"
 preserveAspectRatio="xMidYMid meet">
<metadata>
Created by potrace 1.15, written by Peter Selinger 2001-2017
</metadata>
<g transform="translate(0.000000,1101.000000) scale(0.100000,-0.100000)"
fill="#000000" stroke="none">
<path d="M6195 11000 c-936 -84 -1770 -535 -2351 -1270 -181 -229 -397 -611
-490 -867 l-37 -102 -73 69 c-478 454 -1202 609 -1849 395 -44 -14 -140 -55
-212 -90 -350 -168 -626 -429 -817 -770 -131 -235 -203 -480 -226 -770 -12
-140 -31 -284 -97 -730 -30 -206 -35 -267 -36 -430 -2 -291 33 -395 164 -493
26 -19 149 -40 402 -66 1220 -130 3763 -286 5434 -332 l243 -7 29 -76 c22 -57
316 -798 348 -878 4 -10 -90 -13 -436 -15 l-440 -3 434 -840 c239 -462 435
-842 435 -845 0 -3 -145 -16 -322 -28 -177 -13 -324 -25 -326 -27 -4 -3 1517
-2737 1542 -2770 13 -17 15 -17 70 5 31 13 56 27 56 30 0 4 -14 47 -31 96 -17
49 -57 166 -89 259 -122 354 -182 530 -290 845 -229 668 -340 992 -340 997 0
1 148 4 329 5 l329 3 -379 885 c-208 487 -379 888 -379 893 0 4 176 7 390 7
215 0 390 3 390 8 0 4 -56 324 -124 712 l-122 705 880 6 c1489 11 2343 56
3158 164 633 85 1178 233 1290 352 164 174 191 785 78 1768 -11 94 -24 224
-30 290 -78 842 -712 1522 -1550 1661 -126 21 -339 28 -463 15 -446 -45 -833
-227 -1144 -537 l-82 -82 -56 105 c-280 530 -714 983 -1247 1302 -116 69 -389
200 -513 246 -244 91 -513 157 -775 190 -148 19 -533 27 -675 15z"/>
<path d="M1962 5333 c-192 -231 -387 -553 -432 -715 -64 -230 36 -519 209
-605 28 -14 59 -18 136 -18 116 1 198 19 301 70 201 98 271 261 215 497 -34
145 -123 361 -301 731 -51 107 -68 112 -128 40z m142 -275 c161 -347 217 -510
220 -638 2 -90 -22 -146 -89 -209 -87 -82 -223 -131 -367 -131 -64 0 -81 4
-114 26 -94 63 -141 168 -151 339 -5 91 -3 108 21 180 45 134 142 299 310 527
39 54 73 97 76 98 3 0 45 -87 94 -192z"/>
<path d="M2017 4833 c-7 -7 -3 -17 54 -149 60 -137 83 -222 74 -274 -15 -91
-119 -177 -272 -225 -140 -45 -151 -71 -28 -69 125 2 285 51 363 111 89 67
111 250 48 388 -37 81 -148 192 -218 218 -9 3 -18 3 -21 0z"/>
<path d="M4118 5053 c-132 -175 -231 -326 -293 -449 -79 -157 -90 -198 -90
-339 1 -104 5 -131 29 -200 50 -148 134 -240 240 -266 98 -23 273 7 402 71 76
37 155 116 191 188 57 116 39 282 -57 523 -53 134 -249 559 -268 582 -32 37
-54 22 -154 -110z m134 -40 c9 -21 57 -128 108 -238 123 -266 171 -412 178
-530 4 -78 1 -98 -18 -143 -52 -120 -209 -207 -396 -219 -81 -5 -97 -3 -137
16 -129 63 -207 319 -153 506 22 76 102 231 179 349 71 109 209 296 218 296 3
0 13 -17 21 -37z"/>
<path d="M4235 4630 c-3 -5 19 -65 48 -132 30 -68 60 -141 67 -162 18 -57 17
-135 -3 -173 -39 -74 -139 -141 -272 -183 -72 -23 -105 -44 -91 -57 14 -14
160 -4 241 17 217 56 292 142 283 328 -4 96 -44 187 -115 263 -65 70 -145 120
-158 99z"/>
<path d="M10763 5018 c-42 -47 -173 -228 -253 -348 -82 -125 -164 -282 -195
-375 -42 -125 -26 -304 39 -441 43 -92 93 -147 164 -180 53 -25 63 -26 162
-22 225 11 407 112 480 265 18 36 25 71 28 138 5 102 -14 193 -75 355 -43 116
-260 588 -281 613 -21 23 -44 21 -69 -5z m127 -313 c161 -350 213 -502 214
-630 1 -159 -104 -267 -313 -321 -35 -9 -96 -17 -135 -17 -104 -3 -166 37
-220 142 -52 99 -71 275 -41 376 22 78 96 226 170 340 65 101 225 319 230 313
1 -1 44 -93 95 -203z"/>
<path d="M10790 4485 c0 -2 25 -60 55 -128 54 -123 85 -219 85 -266 0 -14 -9
-44 -21 -67 -37 -78 -124 -137 -272 -188 -96 -33 -116 -51 -70 -62 77 -20 329
42 405 99 173 129 117 450 -101 589 -40 25 -81 37 -81 23z"/>
<path d="M8493 5013 c-18 -7 -222 -284 -299 -405 -171 -270 -218 -434 -180
-629 32 -157 111 -280 214 -331 40 -19 61 -23 137 -21 166 3 315 57 417 151
80 75 111 141 116 252 5 100 -15 190 -79 362 -54 145 -266 600 -286 616 -18
13 -21 13 -40 5z m110 -340 c161 -350 208 -488 209 -617 1 -166 -100 -272
-311 -325 -206 -51 -306 -6 -375 170 -38 98 -47 245 -22 334 23 78 100 228
176 345 74 113 212 300 221 300 3 0 49 -93 102 -207z"/>
<path d="M8506 4462 c-3 -5 11 -44 31 -88 98 -221 116 -292 88 -362 -32 -80
-163 -171 -290 -203 -53 -14 -88 -36 -79 -50 10 -16 145 -9 232 12 102 25 174
59 220 103 90 85 101 257 25 399 -34 64 -116 148 -171 176 -46 24 -49 24 -56
13z"/>
<path d="M2855 3513 c-182 -234 -341 -499 -392 -653 -27 -84 -25 -252 6 -350
30 -98 54 -143 104 -197 75 -81 155 -107 290 -92 225 25 417 150 462 301 33
113 9 276 -70 478 -44 109 -246 550 -270 586 -28 43 -49 30 -130 -73z m305
-513 c144 -357 121 -524 -89 -629 -80 -41 -172 -63 -268 -65 -75 -1 -84 1
-125 29 -48 34 -101 114 -124 190 -25 80 -30 230 -9 301 37 128 151 326 312
543 l85 114 90 -194 c49 -107 107 -237 128 -289z"/>
<path d="M2940 3054 c0 -3 23 -57 50 -120 64 -144 76 -177 85 -241 17 -123
-93 -229 -303 -293 -119 -36 -107 -64 24 -56 189 12 346 81 393 175 84 164 7
398 -167 510 -45 28 -82 40 -82 25z"/>
<path d="M5200 3410 c-189 -255 -312 -466 -354 -610 -19 -62 -22 -198 -7 -275
31 -160 115 -286 221 -334 130 -59 425 11 548 129 145 140 156 310 40 615 -34
89 -252 567 -274 603 -8 13 -24 22 -38 22 -19 0 -46 -30 -136 -150z m234 -203
c161 -350 212 -508 204 -631 -5 -79 -22 -118 -74 -176 -65 -72 -180 -121 -324
-139 -94 -12 -145 -1 -199 45 -87 75 -147 277 -123 416 25 146 141 352 367
655 22 29 42 50 46 45 4 -4 50 -101 103 -215z"/>
<path d="M5330 3000 c0 -6 22 -60 50 -120 90 -199 102 -284 52 -358 -46 -69
-150 -134 -268 -167 -119 -34 -110 -70 16 -61 141 11 293 63 356 122 42 40 74
129 74 207 0 104 -41 203 -117 288 -58 65 -163 122 -163 89z"/>
<path d="M9648 3383 c-178 -232 -311 -449 -370 -605 -29 -74 -32 -95 -32 -193
-1 -224 87 -403 230 -467 92 -40 291 -16 431 53 84 41 166 117 200 187 59 120
39 295 -61 545 -53 131 -246 548 -265 571 -27 32 -49 17 -133 -91z m192 -228
c210 -455 252 -624 187 -757 -15 -31 -44 -70 -63 -87 -116 -102 -368 -158
-471 -103 -125 66 -200 324 -147 503 31 105 134 291 256 462 70 98 140 189
143 185 1 -2 44 -93 95 -203z"/>
<path d="M9750 2923 c0 -10 22 -67 50 -128 50 -111 80 -208 80 -255 -1 -101
-123 -204 -308 -260 -75 -23 -94 -36 -71 -51 36 -23 209 1 329 47 116 43 170
105 191 222 26 141 -63 326 -200 414 -52 32 -71 35 -71 11z"/>
</g>
</svg>
